<svg xmlns="http://www.w3.org/2000/svg" viewBox="0 0 960 540" width="960" height="540">
  <defs>
    <marker id="arrow" markerWidth="10" markerHeight="10" refX="10" refY="3" orient="auto" markerUnits="strokeWidth">
      <path d="M0,0 L10,3 L0,6 Z" fill="#374151" />
    </marker>
    <style><![CDATA[
      .concept { fill: #f0f9ff; stroke: #0284c7; stroke-width: 1.2; rx: 10; ry: 10; }
      .label { font-family: ui-sans-serif, system-ui, -apple-system, Segoe UI, Roboto, Helvetica, Arial; font-size: 14px; fill: #111827; }
      .title { font-size: 18px; font-weight: 600; }
      .edge { stroke: #374151; stroke-width: 1.4; fill: none; marker-end: url(#arrow); }
      .rel { stroke-dasharray: 6 6; }
    ]]></style>
  </defs>

  <text x="20" y="28" class="label title">Concept Graph — Concepts and Relationships</text>

  <rect x="80" y="120" width="160" height="64" class="concept" />
  <text x="100" y="158" class="label">Concept A</text>

  <rect x="360" y="80" width="160" height="64" class="concept" />
  <text x="380" y="118" class="label">Finance</text>

  <rect x="360" y="200" width="160" height="64" class="concept" />
  <text x="380" y="238" class="label">Trade</text>

  <rect x="640" y="140" width="200" height="64" class="concept" />
  <text x="660" y="178" class="label">Resource Value</text>

  <path class="edge rel" d="M240,152 C280,140 320,128 360,112" />
  <text x="270" y="128" class="label">RelatedTo</text>

  <path class="edge rel" d="M240,152 C280,164 320,176 360,208" />
  <text x="270" y="196" class="label">RelatedTo</text>

  <path class="edge rel" d="M520,112 C560,132 600,144 640,172" />
  <text x="540" y="152" class="label">RelatedTo</text>

  <g transform="translate(80,400)">
    <rect width="760" height="96" fill="#f9fafb" stroke="#e5e7eb" />
    <text x="12" y="24" class="label">Morphisms: IsA, PartOf, RelatedTo, SameAs, OppositeOf, DependsOn</text>
    <text x="12" y="48" class="label">Objects: Concept; Graph: ConceptGraph</text>
    <text x="12" y="72" class="label">HasConcept links domain primitives (e.g., ValueObject) to Concept ids</text>
  </g>
</svg>
