<svg xmlns="http://www.w3.org/2000/svg" viewBox="0 0 980 520" width="980" height="520">
  <defs>
    <marker id="arrow" markerWidth="10" markerHeight="10" refX="10" refY="3" orient="auto" markerUnits="strokeWidth">
      <path d="M0,0 L10,3 L0,6 Z" fill="#374151" />
    </marker>
    <style><![CDATA[
      .box { fill: #f8fafc; stroke: #1f2937; stroke-width: 1.2; rx: 10; ry: 10; }
      .label { font-family: ui-sans-serif, system-ui, -apple-system, Segoe UI, Roboto, Helvetica, Arial; font-size: 14px; fill: #111827; }
      .title { font-size: 18px; font-weight: 600; }
      .edge { stroke: #374151; stroke-width: 1.4; fill: none; marker-end: url(#arrow); }
    ]]></style>
  </defs>

  <text x="20" y="28" class="label title">Entity Naming — Features → Concept</text>

  <rect x="60" y="80" width="220" height="64" class="box" />
  <text x="80" y="118" class="label">Entity Features</text>

  <rect x="360" y="60" width="240" height="64" class="box" />
  <text x="380" y="98" class="label">QualitySchema</text>

  <rect x="360" y="180" width="240" height="64" class="box" />
  <text x="380" y="218" class="label">Prototypes (Concept → QV)</text>

  <rect x="660" y="120" width="220" height="64" class="box" />
  <text x="680" y="158" class="label">Concept Id</text>

  <path class="edge" d="M280,112 C320,112 340,112 360,92" />
  <text x="300" y="82" class="label">vector_from_features</text>

  <path class="edge" d="M600,92 C620,104 640,112 660,140" />
  <text x="610" y="120" class="label">suggest_by_prototypes</text>

  <path class="edge" d="M600,212 C620,188 640,168 660,144" />
  <text x="610" y="184" class="label">argmax cosine</text>

  <g transform="translate(60,380)">
    <rect width="820" height="100" fill="#f9fafb" stroke="#e5e7eb" />
    <text x="12" y="24" class="label">This is a pure adapter: entity features (under schema) select the closest concept prototype</text>
    <text x="12" y="50" class="label">UL link: HasConcept on types + named concepts in ontology</text>
  </g>
</svg>
