<svg xmlns="http://www.w3.org/2000/svg" viewBox="0 0 980 520" width="980" height="520">
  <defs>
    <marker id="arrow" markerWidth="10" markerHeight="10" refX="10" refY="3" orient="auto" markerUnits="strokeWidth">
      <path d="M0,0 L10,3 L0,6 Z" fill="#374151" />
    </marker>
    <style><![CDATA[
      .box { fill: #f8fafc; stroke: #1f2937; stroke-width: 1.2; rx: 10; ry: 10; }
      .label { font-family: ui-sans-serif, system-ui, -apple-system, Segoe UI, Roboto, Helvetica, Arial; font-size: 14px; fill: #111827; }
      .title { font-size: 18px; font-weight: 600; }
      .edge { stroke: #374151; stroke-width: 1.4; fill: none; marker-end: url(#arrow); }
    ]]></style>
  </defs>

  <text x="20" y="28" class="label title">Ontology → Quality Dimensions (Qualify)</text>

  <rect x="60" y="100" width="260" height="80" class="box" />
  <text x="80" y="140" class="label">Ontology (Concepts + Relations)</text>

  <rect x="360" y="60" width="200" height="64" class="box" />
  <text x="380" y="98" class="label">Concept</text>

  <rect x="360" y="180" width="220" height="64" class="box" />
  <text x="380" y="218" class="label">QualitySchema</text>

  <rect x="660" y="120" width="220" height="64" class="box" />
  <text x="680" y="158" class="label">QualityVector</text>

  <path class="edge" d="M320,140 C340,140 360,140 360,140" />
  <text x="330" y="128" class="label">Qualify</text>

  <path class="edge" d="M580,210 C610,190 620,180 660,152" />
  <text x="600" y="190" class="label">schema</text>

  <g transform="translate(60,380)">
    <rect width="820" height="100" fill="#f9fafb" stroke="#e5e7eb" />
    <text x="12" y="24" class="label">Laws: Functorial in ontology morphisms (refinement stability); monotonic for monotone features</text>
    <text x="12" y="50" class="label">Adapter only: conceptual space model lives downstream; this is a pure mapping</text>
  </g>
</svg>
