<svg xmlns="http://www.w3.org/2000/svg" width="980" height="360" viewBox="0 0 980 360">
  <defs>
    <marker id="arrow" markerWidth="10" markerHeight="10" refX="10" refY="3" orient="auto" markerUnits="strokeWidth">
      <path d="M0,0 L10,3 L0,6 Z" fill="#374151" />
    </marker>
    <style><![CDATA[
      .title { font-family: ui-sans-serif, system-ui; font-size: 18px; font-weight: 600; fill: #111827; }
      .label { font-family: ui-sans-serif, system-ui; font-size: 13px; fill: #111827; }
      .proj { fill: #faf5ff; stroke: #8b5cf6; stroke-width: 1.2; rx: 8; ry: 8; }
      .rm { fill: #ecfdf5; stroke: #10b981; stroke-width: 1.2; rx: 8; ry: 8; }
      .stream { fill: #f3f4f6; stroke: #6b7280; stroke-width: 1.2; rx: 8; ry: 8; }
      .qry { fill: #ecfeff; stroke: #06b6d4; stroke-width: 1.2; rx: 8; ry: 8; }
      .env { fill: #f5f3ff; stroke: #7c3aed; stroke-width: 1.2; rx: 8; ry: 8; }
      .edge { stroke: #374151; stroke-width: 1.3; fill: none; marker-end: url(#arrow); }
    ]]></style>
  </defs>

  <text x="16" y="28" class="title">Read Path</text>

  <rect x="40" y="140" width="160" height="46" class="stream" />
  <text x="52" y="168" class="label">EventStream</text>

  <rect x="240" y="80" width="180" height="46" class="proj" />
  <text x="252" y="108" class="label">Projection</text>
  <path class="edge" d="M200,163 C212,150 224,130 240,120" />
  <text x="200" y="130" class="label">subscribes_to</text>
  <path class="edge" d="M200,163 C212,163 224,163 240,163" />
  <text x="208" y="152" class="label">consumes_event</text>

  <rect x="460" y="140" width="180" height="46" class="rm" />
  <text x="472" y="168" class="label">ReadModel</text>
  <path class="edge" d="M420,163 C432,163 444,163 460,163" />
  <text x="416" y="152" class="label">updates_read_model</text>

  <rect x="680" y="140" width="140" height="46" class="qry" />
  <text x="692" y="168" class="label">Query</text>
  <path class="edge" d="M660,163 C640,163 620,163 600,163" />
  <text x="604" y="152" class="label">reads_from</text>

  <rect x="840" y="140" width="140" height="46" class="env" />
  <text x="852" y="168" class="label">QueryResponse</text>
  <path class="edge" d="M760,163 C780,163 800,163 840,163" />
  <text x="770" y="152" class="label">responds_with</text>

</svg>

